<svg id="Layer_1" data-name="Layer 1" xmlns="http://www.w3.org/2000/svg" xmlns:xlink="http://www.w3.org/1999/xlink" viewBox="0 0 385 230"><defs><style>.cls-1,.cls-10,.cls-12,.cls-13,.cls-15,.cls-16,.cls-17,.cls-18,.cls-20,.cls-21,.cls-23,.cls-24,.cls-25,.cls-26,.cls-3,.cls-4,.cls-5,.cls-6,.cls-9{fill:none;}.cls-2{font-size:72.29px;font-family:PalatinoLinotype-Bold, Palatino Linotype;font-weight:700;letter-spacing:0.32em;}.cls-19,.cls-2{fill:#16f943;}.cls-12,.cls-13,.cls-14,.cls-15,.cls-16,.cls-17,.cls-18,.cls-3,.cls-5,.cls-6{stroke:#252324;}.cls-12,.cls-13,.cls-14,.cls-15,.cls-16,.cls-17,.cls-18,.cls-20,.cls-21,.cls-23,.cls-25,.cls-26,.cls-3,.cls-4,.cls-5,.cls-6,.cls-9{stroke-linecap:round;}.cls-12,.cls-13,.cls-14,.cls-15,.cls-16,.cls-17,.cls-18,.cls-20,.cls-21,.cls-23,.cls-25,.cls-3,.cls-4,.cls-5,.cls-6,.cls-9{stroke-linejoin:round;}.cls-3{stroke-width:2px;}.cls-4{stroke:#000100;}.cls-6{stroke-dasharray:4;}.cls-7{fill:#252324;}.cls-8{fill:#f55;}.cls-10,.cls-20,.cls-9{stroke:#16f943;}.cls-9{stroke-width:1.5px;}.cls-10,.cls-24,.cls-26{stroke-miterlimit:10;}.cls-10{stroke-width:3px;}.cls-11{font-size:13.58px;font-family:PalatinoLinotype-Roman, Palatino Linotype;letter-spacing:0.05em;}.cls-12{stroke-dasharray:4.12 4.12;}.cls-13{stroke-dasharray:3.73 3.73;}.cls-14{fill:#fff;}.cls-15{stroke-dasharray:4.12 4.12;}.cls-16{stroke-dasharray:4 4;}.cls-17{stroke-dasharray:3.99 3.99;}.cls-18{stroke-dasharray:4.14 4.14;}.cls-21{stroke:#000;}.cls-22{clip-path:url(#clip-path);}.cls-23{stroke:#fff;}.cls-24,.cls-25,.cls-26{stroke:#231f20;}.cls-24{stroke-width:0.75px;}</style><clipPath id="clip-path"><path class="cls-1" d="M49.84,88.14s13.34-10,13.34-19.47-11.83-10.2-13.34-.73c-1.5-9.47-13.33-8.74-13.33,1.45S49.84,88.14,49.84,88.14Z"/></clipPath></defs><title>Artboard 1</title><text class="cls-2" transform="translate(11.91 180.76) scale(1.03 1)">SAUCE</text><path d="M43.2,195.53a.86.86,0,0,0-.87-.85h0a.86.86,0,0,0-.88.85h0a.86.86,0,0,0,.88.85h0a.86.86,0,0,0,.87-.85Z"/><path d="M39.71,195.53a.86.86,0,0,0-.88-.85h0a.86.86,0,0,0-.87.85h0a.86.86,0,0,0,.87.85h0a.86.86,0,0,0,.88-.85Z"/><path class="cls-3" d="M110,208.86c0,10-8.75,18.18-19.55,18.18s-19.54-8.14-19.54-18.18,8.75-18.19,19.54-18.19S110,198.81,110,208.86Z"/><path class="cls-4" d="M99.43,208.86c0,4.59-4,8.32-9,8.32s-8.94-3.73-8.94-8.32,4-8.33,8.94-8.33S99.43,204.26,99.43,208.86Z"/><path class="cls-4" d="M94.43,208.85a4,4,0,1,1-4-3.67A3.82,3.82,0,0,1,94.43,208.85Z"/><line class="cls-5" x1="373.89" y1="227.93" x2="15.28" y2="227.93"/><line class="cls-6" x1="115.7" y1="207.79" x2="224.41" y2="207.79"/><line class="cls-5" x1="286.37" y1="215.22" x2="286.37" y2="211.19"/><line class="cls-5" x1="289.58" y1="215.22" x2="289.58" y2="211.19"/><line class="cls-5" x1="292.8" y1="215.22" x2="292.8" y2="211.19"/><line class="cls-5" x1="276.72" y1="215.22" x2="276.72" y2="211.19"/><line class="cls-5" x1="279.93" y1="214.74" x2="279.93" y2="207.98"/><line class="cls-5" x1="283.15" y1="215.22" x2="283.15" y2="211.19"/><line class="cls-5" x1="267.07" y1="215.22" x2="267.07" y2="211.19"/><line class="cls-5" x1="270.28" y1="215.22" x2="270.28" y2="211.19"/><line class="cls-5" x1="273.5" y1="215.22" x2="273.5" y2="211.19"/><line class="cls-5" x1="257.41" y1="215.22" x2="257.41" y2="211.19"/><line class="cls-5" x1="260.63" y1="215.22" x2="260.63" y2="211.19"/><line class="cls-5" x1="263.85" y1="215.22" x2="263.85" y2="207.98"/><line class="cls-5" x1="247.76" y1="215.22" x2="247.76" y2="207.98"/><line class="cls-5" x1="250.98" y1="215.22" x2="250.98" y2="211.19"/><line class="cls-5" x1="254.2" y1="215.22" x2="254.2" y2="211.19"/><path class="cls-5" d="M231.28,208c0,3.92,3.68,7.24,8.31,7.24h53.54c4.15,0,7.27-1.9,8.3-4.83H314a2.41,2.41,0,1,0,0-4.81v0H301.43c-1-2.93-4.15-4.82-8.3-4.82H239.59C235,200.74,231.28,204.06,231.28,208Z"/><path class="cls-5" d="M234,208c0-2.49,2.54-4.59,5.56-4.59H263"/><path class="cls-7" d="M265.77,203a.44.44,0,0,1,.45.43.45.45,0,0,1-.89,0A.44.44,0,0,1,265.77,203Z"/><path class="cls-7" d="M268.51,203a.44.44,0,0,1,.45.43.45.45,0,0,1-.89,0A.44.44,0,0,1,268.51,203Z"/><path class="cls-7" d="M271.26,203a.44.44,0,0,1,.44.43.45.45,0,0,1-.89,0A.44.44,0,0,1,271.26,203Z"/><path class="cls-8" d="M313.8,206.8a1.18,1.18,0,1,1-1.22,1.18A1.2,1.2,0,0,1,313.8,206.8Z"/><line class="cls-9" x1="313.41" y1="207.98" x2="242.27" y2="207.98"/><line class="cls-3" x1="57.53" y1="220.88" x2="27.16" y2="220.88"/><line class="cls-3" x1="55.56" y1="212.22" x2="33.53" y2="212.22"/><line class="cls-3" x1="53.59" y1="203.57" x2="38.41" y2="203.57"/><line class="cls-3" x1="51.62" y1="194.91" x2="42.69" y2="194.91"/><path d="M24.42,220.88a.89.89,0,0,0-.91-.88h0a.9.9,0,0,0-.92.88h0a.91.91,0,0,0,.92.89h0a.9.9,0,0,0,.91-.89Z"/><path d="M30.79,212.22a.9.9,0,0,0-.92-.88h0a.89.89,0,0,0-.91.88h0a.9.9,0,0,0,.91.89h0a.91.91,0,0,0,.92-.89Z"/><path d="M27.13,212.22a.89.89,0,0,0-.91-.88h0a.9.9,0,0,0-.92.88h0a.91.91,0,0,0,.92.89h0a.9.9,0,0,0,.91-.89Z"/><path d="M20.76,220.88a.89.89,0,0,0-.91-.88h0a.89.89,0,0,0-.91.88h0a.9.9,0,0,0,.91.89h0a.9.9,0,0,0,.91-.89Z"/><path d="M17.11,220.88a.9.9,0,0,0-.92-.88h0a.89.89,0,0,0-.91.88h0a.9.9,0,0,0,.91.89h0a.91.91,0,0,0,.92-.89Z"/><path d="M35.65,203.57a.91.91,0,0,0-.92-.89h0a.9.9,0,0,0-.91.89h0a.89.89,0,0,0,.91.88h0a.9.9,0,0,0,.92-.88Z"/><path d="M32,203.57a.9.9,0,0,0-.91-.89h0a.91.91,0,0,0-.92.89h0a.9.9,0,0,0,.92.88h0a.89.89,0,0,0,.91-.88Z"/><path d="M28.33,203.57a.9.9,0,0,0-.91-.89h0a.9.9,0,0,0-.91.89h0a.89.89,0,0,0,.91.88h0a.89.89,0,0,0,.91-.88Z"/><path class="cls-3" d="M366.6,207.77c0,10-8.75,18.19-19.55,18.19s-19.54-8.14-19.54-18.19,8.75-18.18,19.54-18.18S366.6,197.73,366.6,207.77Z"/><path class="cls-4" d="M356,207.77c0,4.6-4,8.33-8.94,8.33s-8.95-3.73-8.95-8.33,4-8.32,8.95-8.32S356,203.18,356,207.77Z"/><path class="cls-4" d="M351,207.77a4,4,0,1,1-3.95-3.67A3.82,3.82,0,0,1,351,207.77Z"/><path class="cls-5" d="M296.6,81.17c-6,0-10.93,4.1-10.93,9.16v18h21.85v-18C307.52,85.27,302.63,81.17,296.6,81.17Z"/><path class="cls-10" d="M289.32,97.93V91.76a7.08,7.08,0,0,1,4.78-6.62"/><path class="cls-5" d="M296.6,83.83a8.08,8.08,0,0,1,8.19,7.93v2.4"/><rect class="cls-5" x="281.88" y="108.57" width="29.43" height="5.57"/><path class="cls-5" d="M230,112.71a4.5,4.5,0,0,1-4.56,4.42H203.55a4.51,4.51,0,0,1-4.57-4.42V70.24a4.51,4.51,0,0,1,4.57-4.42h21.91A4.5,4.5,0,0,1,230,70.24Z"/><line class="cls-5" x1="198.98" y1="74.66" x2="230.02" y2="74.66"/><line class="cls-5" x1="198.98" y1="108.29" x2="230.02" y2="108.29"/><line class="cls-5" x1="208.11" y1="71.12" x2="220.89" y2="71.12"/><ellipse class="cls-5" cx="214.5" cy="112.71" rx="1.83" ry="1.77"/><text class="cls-11" transform="translate(203.96 94.75) scale(1.03 1)">sos</text><line class="cls-6" x1="193.2" y1="91.47" x2="153.11" y2="91.47"/><line class="cls-5" x1="127.82" y1="91.47" x2="125.82" y2="91.47"/><line class="cls-12" x1="121.7" y1="91.47" x2="74.31" y2="91.47"/><polyline class="cls-5" points="72.25 91.47 70.25 91.47 70.25 93.47"/><line class="cls-13" x1="70.25" y1="97.21" x2="70.25" y2="117.73"/><line class="cls-5" x1="70.25" y1="119.6" x2="70.25" y2="121.6"/><path class="cls-7" d="M305.26,96.33a.47.47,0,0,1-.94,0,.47.47,0,0,1,.94,0Z"/><path class="cls-7" d="M305.26,98.39a.47.47,0,0,1-.94,0,.47.47,0,0,1,.94,0Z"/><line class="cls-14" x1="297.07" y1="77.05" x2="297.07" y2="64.84"/><line class="cls-14" x1="284.78" y1="81.61" x2="275.87" y2="72.97"/><line class="cls-14" x1="279.42" y1="93.25" x2="266.82" y2="93.25"/><line class="cls-14" x1="309.08" y1="82.25" x2="317.99" y2="73.62"/><line class="cls-14" x1="313.78" y1="94.16" x2="326.38" y2="94.16"/><line class="cls-5" x1="266.82" y1="123.72" x2="268.82" y2="123.72"/><line class="cls-15" x1="272.94" y1="123.72" x2="369.83" y2="123.72"/><polyline class="cls-5" points="371.89 123.72 373.89 123.72 373.89 121.72"/><line class="cls-16" x1="373.89" y1="117.72" x2="373.89" y2="47.77"/><polyline class="cls-5" points="373.89 45.77 373.89 43.77 371.89 43.77"/><line class="cls-17" x1="367.91" y1="43.77" x2="218.42" y2="43.77"/><polyline class="cls-5" points="216.42 43.77 214.42 43.77 214.42 45.77"/><line class="cls-18" x1="214.42" y1="49.91" x2="214.42" y2="56.12"/><line class="cls-5" x1="214.42" y1="58.19" x2="214.42" y2="60.19"/><path class="cls-19" d="M49.84,88.14s13.34-10,13.34-19.47-11.83-10.2-13.34-.73c-1.5-9.47-13.33-8.74-13.33,1.45S49.84,88.14,49.84,88.14Z"/><path class="cls-20" d="M162.05,15.46c0,7.39-5.16,13.39-11.51,13.39S139,22.85,139,15.46s5.15-13.39,11.51-13.39S162.05,8.07,162.05,15.46Z"/><path class="cls-20" d="M168.19,37.3l-10-4.26a14.9,14.9,0,0,1-7.3,2.48A14.91,14.91,0,0,1,143.56,33l-10,4.26A6.78,6.78,0,0,0,129,43.66V57.82h43.83V43.66A6.78,6.78,0,0,0,168.19,37.3Z"/><line class="cls-20" x1="143.56" y1="33.04" x2="148.41" y2="57.82"/><line class="cls-20" x1="158.15" y1="33.04" x2="153.3" y2="57.82"/><polygon class="cls-19" points="148.1 57.82 149.5 37.99 151.64 37.99 153.73 57.82 148.1 57.82"/><path class="cls-19" d="M152.82,35.32a13.44,13.44,0,0,1-4.46-.13L149.5,38h2.14Z"/><path class="cls-20" d="M143.56,33a16.07,16.07,0,0,0-5.62,6.85"/><path class="cls-20" d="M158.17,33s2.88,2.5,5.27,8.68"/><path class="cls-20" d="M134,53.54a4,4,0,0,1-1.29-3.62L134,42.1c.21-1.27,2-2.21,3.92-2.21h0c2,0,3.71.94,3.92,2.21l1.33,7.82a4,4,0,0,1-1.2,3.53"/><ellipse class="cls-19" cx="133.99" cy="53.54" rx="1.07" ry="1.04"/><ellipse class="cls-19" cx="141.9" cy="53.54" rx="1.07" ry="1.04"/><path class="cls-19" d="M167.27,44.1a3.33,3.33,0,1,1-3.33-3.22A3.28,3.28,0,0,1,167.27,44.1Z"/><path class="cls-21" d="M165.56,44.1a1.62,1.62,0,1,1-1.62-1.56A1.6,1.6,0,0,1,165.56,44.1Z"/><path class="cls-19" d="M139.13,13.79c16.18,2.9,15.39-10.51,15.36-10.89a10.12,10.12,0,0,0-4-.83C144.67,2.07,139.83,7.19,139.13,13.79Z"/><path class="cls-19" d="M151.82,2.16l-.31,2.11,2.39,3c-.06.2,1.14,5.34,8,5.86C161,7.34,156.91,2.82,151.82,2.16Z"/><path class="cls-20" d="M139,18.08h0a2,2,0,0,1-2.05-2v-.55a2,2,0,0,1,2.05-2h0"/><path class="cls-20" d="M162.05,18.08h0a2,2,0,0,0,2-2v-.55a2,2,0,0,0-2-2h0"/><line class="cls-20" x1="145.07" y1="27.24" x2="143.56" y2="33.04"/><line class="cls-20" x1="156.69" y1="27.24" x2="158.2" y2="33.04"/><polyline class="cls-6" points="121.39 53.67 104.32 53.67 104.32 88.64"/><polyline class="cls-6" points="170.99 36.85 203.24 36.85 203.24 61.54"/><polyline class="cls-4" points="15.28 74.66 25.37 74.66 27.82 66.94 31.02 80.8 34.54 71.95 36.51 76.38 42.58 68.27 48.21 76.08 51.55 71.13 58.4 83.75 66.77 71.13 69.05 74.66 74.17 74.66"/><line class="cls-6" x1="11.63" y1="74.66" x2="15.28" y2="74.66"/><line class="cls-6" x1="104.32" y1="74.66" x2="76" y2="74.66"/><g class="cls-22"><polyline class="cls-23" points="15.28 74.66 25.37 74.66 27.82 66.94 31.02 80.8 34.54 71.95 36.51 76.38 42.58 68.27 48.21 76.08 51.55 71.13 58.4 83.75 64.94 71.13 67.22 74.66 74.17 74.66"/></g><path class="cls-24" d="M139.13,113.07a10.79,10.79,0,0,1-10.94-10.61c0-5.11,7.62-15.33,9.15-17.32l1.79-2.34,1.78,2.34c1.53,2,9.15,12.21,9.15,17.32A10.78,10.78,0,0,1,139.13,113.07Z"/><path class="cls-19" d="M130.42,102.46c0-4.66,8.71-16,8.71-16s8.71,11.38,8.71,16a8.71,8.71,0,0,1-17.42,0Z"/><path class="cls-25" d="M145.61,102.46a6.4,6.4,0,0,1-6.48,6.29"/><path class="cls-25" d="M143.53,97.1c.45.82.84,1.6,1.17,2.32"/><path class="cls-26" d="M135.81,95.22c1-1.71,2.19-3.47,3.32-5.07"/></svg>