<svg xmlns="http://www.w3.org/2000/svg" xmlns:xlink="http://www.w3.org/1999/xlink" viewBox="0 0 500 500"><defs><style>.cls-1,.cls-11,.cls-13,.cls-14,.cls-15,.cls-16,.cls-17,.cls-18,.cls-19,.cls-21,.cls-5,.cls-6,.cls-7,.cls-9{fill:none;}.cls-10,.cls-2{fill:#fff;}.cls-3{font-size:79.53px;font-family:PalatinoLinotype-Bold, Palatino Linotype;font-weight:700;letter-spacing:0.31em;}.cls-3,.cls-4{fill:#16f943;}.cls-5,.cls-6{stroke:#fff;}.cls-10,.cls-11,.cls-13,.cls-14,.cls-15,.cls-16,.cls-17,.cls-18,.cls-19,.cls-21,.cls-5,.cls-6,.cls-7{stroke-linecap:round;}.cls-10,.cls-11,.cls-13,.cls-14,.cls-15,.cls-16,.cls-17,.cls-18,.cls-19,.cls-21,.cls-5,.cls-7{stroke-linejoin:round;}.cls-10,.cls-11,.cls-13,.cls-14,.cls-15,.cls-16,.cls-17,.cls-18,.cls-19,.cls-21,.cls-5,.cls-6,.cls-7,.cls-9{stroke-width:1.75px;}.cls-6,.cls-9{stroke-miterlimit:10;}.cls-10,.cls-13,.cls-14,.cls-15,.cls-16,.cls-17,.cls-18,.cls-19,.cls-7{stroke:#252324;}.cls-8{fill:#252324;}.cls-21,.cls-9{stroke:#16f943;}.cls-11{stroke:#000100;}.cls-12{font-size:15.35px;font-family:PalatinoLinotype-Roman, Palatino Linotype;letter-spacing:0.05em;}.cls-13{stroke-dasharray:4;}.cls-14{stroke-dasharray:3.94 3.94;}.cls-15{stroke-dasharray:3.42 3.42;}.cls-16{stroke-dasharray:4 4;}.cls-17{stroke-dasharray:4.11 4.11;}.cls-18{stroke-dasharray:4.04 4.04;}.cls-19{stroke-dasharray:3.33 3.33;}.cls-20{fill:#f55;}.cls-22{clip-path:url(#clip-path);}</style><clipPath id="clip-path"><path class="cls-1" d="M91.46,219.41s14.61-11.31,14.61-22-13-11.53-14.61-.82c-1.65-10.71-14.61-9.88-14.61,1.64S91.46,219.41,91.46,219.41Z"/></clipPath></defs><title>Mesa de trabajo 1</title><g id="BACKGROUND"><rect class="cls-2" width="500" height="500"/></g><g id="OBJECTS"><path d="M25.8,262.19a1,1,0,0,1-1,1h0a1,1,0,0,1-1-1h0a1,1,0,0,1,1-1h0a1,1,0,0,1,1,1Z"/><path d="M32.76,272a1,1,0,0,1-1,1h0a1,1,0,0,1-1-1h0a1,1,0,0,1,1-1h0a1,1,0,0,1,1,1Z"/><path d="M28.76,272a1,1,0,0,1-1,1h0a1,1,0,0,1-1-1h0a1,1,0,0,1,1-1h0a1,1,0,0,1,1,1Z"/><path d="M21.8,262.19a1,1,0,0,1-1,1h0a1,1,0,0,1-1-1h0a1,1,0,0,1,1-1h0a1,1,0,0,1,1,1Z"/><path d="M17.8,262.19a1,1,0,0,1-1,1h0a1,1,0,0,1-1-1h0a1,1,0,0,1,1-1h0a1,1,0,0,1,1,1Z"/><text class="cls-3" transform="translate(71.37 322.5)">SAUCE</text><path class="cls-2" d="M193.73,266.85a9.83,9.83,0,0,1-9.82-9.82c0-4.74,6.84-14.2,8.21-16l1.61-2.17,1.61,2.17c1.37,1.84,8.21,11.3,8.21,16A9.83,9.83,0,0,1,193.73,266.85Z"/><path class="cls-4" d="M185.91,257c0-4.32,7.82-14.85,7.82-14.85s7.82,10.53,7.82,14.85a7.82,7.82,0,0,1-15.64,0Z"/><path class="cls-5" d="M199.55,257a5.83,5.83,0,0,1-5.82,5.82"/><path class="cls-5" d="M197.68,252.07c.41.75.76,1.48,1,2.14"/><path class="cls-6" d="M190.75,250.32c.92-1.58,2-3.21,3-4.69"/><line class="cls-7" x1="185.88" y1="213.18" x2="201.58" y2="213.18"/><line class="cls-7" x1="188.68" y1="221.66" x2="191.49" y2="221.66"/><line class="cls-7" x1="188.68" y1="223.9" x2="191.49" y2="223.9"/><line class="cls-7" x1="188.68" y1="226.15" x2="191.49" y2="226.15"/><path class="cls-7" d="M193.73,202a5.37,5.37,0,0,0-5,5.6v22.5c0,2.8,1.33,4.91,3.37,5.61v3.8h3.36v-3.8c2-.7,3.36-2.81,3.36-5.61v-22.5A5.36,5.36,0,0,0,193.73,202Z"/><path class="cls-8" d="M198.77,213.18v-5.61a5.07,5.07,0,1,0-10.09,0v5.61Z"/><path class="cls-7" d="M361.77,211.53a12,12,0,0,0-12,12V247h23.93V223.5A12,12,0,0,0,361.77,211.53Z"/><path class="cls-9" d="M353.8,230.48v-7A8,8,0,0,1,359,216"/><path class="cls-7" d="M361.76,214.53a9,9,0,0,1,9,9v2.71"/><rect class="cls-10" x="345.64" y="239.62" width="32.24" height="9.04"/><path class="cls-7" d="M151.13,347.3c0,11.33-9.57,20.52-21.38,20.52s-21.39-9.19-21.39-20.52,9.58-20.53,21.39-20.53S151.13,336,151.13,347.3Z"/><path class="cls-11" d="M134.4,358.76a13.23,13.23,0,0,1-4.65.84,12.32,12.32,0,1,1,0-24.61A13.12,13.12,0,0,1,138,337.9"/><path class="cls-11" d="M138.3,356.46a12.19,12.19,0,0,1-1,.76"/><path class="cls-11" d="M142.56,347.3a11.92,11.92,0,0,1-3,7.87"/><path class="cls-11" d="M141.82,343.16a11.5,11.5,0,0,1,.4,1.3"/><path class="cls-11" d="M140.24,340.23c.22.3.42.6.61.91"/><path class="cls-11" d="M139.53,347.3a9.79,9.79,0,1,1-9.78-9.4A9.6,9.6,0,0,1,139.53,347.3Z"/><path class="cls-11" d="M134.07,347.3a4.32,4.32,0,1,1-4.32-4.15A4.23,4.23,0,0,1,134.07,347.3Z"/><path d="M131,354.74a1.2,1.2,0,1,1-1.2-1.16A1.18,1.18,0,0,1,131,354.74Z"/><path d="M135.86,351.71a1.17,1.17,0,0,1,0,1.66,1.16,1.16,0,1,1,0-1.66Z"/><path d="M137.19,346.09A1.21,1.21,0,1,1,136,347.3,1.18,1.18,0,0,1,137.19,346.09Z"/><path d="M134.16,341.19a1.2,1.2,0,1,1,0,1.66A1.17,1.17,0,0,1,134.16,341.19Z"/><path d="M128.55,339.86a1.2,1.2,0,1,1,1.2,1.15A1.18,1.18,0,0,1,128.55,339.86Z"/><path d="M123.64,342.89a1.2,1.2,0,0,1,1.7-1.7,1.17,1.17,0,0,1,0,1.66A1.18,1.18,0,0,1,123.64,342.89Z"/><path d="M122.31,348.5a1.21,1.21,0,1,1,1.16-1.2A1.17,1.17,0,0,1,122.31,348.5Z"/><path d="M125.34,353.41a1.18,1.18,0,0,1-1.67,0,1.16,1.16,0,1,1,1.64-1.63A1.18,1.18,0,0,1,125.34,353.41Z"/><line class="cls-11" x1="107.1" y1="250.97" x2="113.57" y2="250.97"/><line class="cls-11" x1="83.82" y1="260.03" x2="83.82" y2="241.92"/><line class="cls-11" x1="76.06" y1="256.14" x2="76.06" y2="245.8"/><line class="cls-11" x1="76.06" y1="253.56" x2="83.82" y2="253.56"/><line class="cls-11" x1="76.06" y1="248.38" x2="83.82" y2="248.38"/><path class="cls-11" d="M83.82,245.8h18.1a5.17,5.17,0,1,1,0,10.34H83.82"/><line class="cls-11" x1="88.99" y1="256.14" x2="88.99" y2="252.26"/><line class="cls-11" x1="92.87" y1="256.14" x2="92.87" y2="252.26"/><line class="cls-11" x1="96.75" y1="256.14" x2="96.75" y2="252.26"/><line class="cls-7" x1="453.33" y1="368.82" x2="56.33" y2="368.82"/><line class="cls-5" x1="96.58" y1="276.64" x2="50.63" y2="276.64"/><line class="cls-5" x1="91.7" y1="286.41" x2="57.6" y2="286.41"/><line class="cls-5" x1="79.54" y1="296.18" x2="62.93" y2="296.18"/><line class="cls-5" x1="74.65" y1="305.96" x2="67.62" y2="305.96"/><rect class="cls-7" x="254.83" y="194.18" width="34" height="58" rx="5"/><line class="cls-7" x1="254.83" y1="204.18" x2="288.83" y2="204.18"/><line class="cls-7" x1="254.83" y1="242.18" x2="288.83" y2="242.18"/><line class="cls-7" x1="264.83" y1="200.18" x2="278.83" y2="200.18"/><circle class="cls-7" cx="271.83" cy="247.18" r="2"/><text class="cls-12" transform="translate(260.29 226.88)">sos</text><line class="cls-13" x1="248.5" y1="223.18" x2="204.58" y2="223.18"/><line class="cls-7" x1="176.88" y1="223.18" x2="174.88" y2="223.18"/><line class="cls-14" x1="170.94" y1="223.18" x2="117.79" y2="223.18"/><polyline class="cls-7" points="115.82 223.18 113.82 223.18 113.82 225.18"/><line class="cls-15" x1="113.82" y1="228.6" x2="113.82" y2="233.74"/><line class="cls-7" x1="113.82" y1="235.45" x2="113.82" y2="237.45"/><path class="cls-8" d="M371.25,228.66a.52.52,0,1,1-.52-.51A.52.52,0,0,1,371.25,228.66Z"/><path class="cls-8" d="M371.25,231a.52.52,0,1,1-.52-.51A.52.52,0,0,1,371.25,231Z"/><line class="cls-10" x1="362.28" y1="206.88" x2="362.28" y2="193.07"/><line class="cls-10" x1="348.82" y1="212.03" x2="339.06" y2="202.27"/><line class="cls-10" x1="342.94" y1="225.19" x2="329.14" y2="225.19"/><line class="cls-10" x1="375.44" y1="212.75" x2="385.2" y2="202.99"/><line class="cls-10" x1="380.59" y1="226.21" x2="394.39" y2="226.21"/><line class="cls-7" x1="385.2" y1="260.14" x2="387.2" y2="260.14"/><line class="cls-16" x1="391.19" y1="260.14" x2="421.17" y2="260.14"/><polyline class="cls-7" points="423.17 260.14 425.17 260.14 425.17 258.14"/><line class="cls-17" x1="425.17" y1="254.03" x2="425.17" y2="173.84"/><polyline class="cls-7" points="425.17 171.78 425.17 169.78 423.17 169.78"/><line class="cls-18" x1="419.13" y1="169.78" x2="275.77" y2="169.78"/><polyline class="cls-7" points="273.75 169.78 271.75 169.78 271.75 171.78"/><line class="cls-19" x1="271.75" y1="175.12" x2="271.75" y2="180.12"/><line class="cls-7" x1="271.75" y1="181.78" x2="271.75" y2="183.78"/><path class="cls-4" d="M91.46,219.41s14.61-11.31,14.61-22-13-11.53-14.61-.82c-1.65-10.71-14.61-9.88-14.61,1.64S91.46,219.41,91.46,219.41Z"/><line class="cls-13" x1="157.33" y1="346.09" x2="266.9" y2="346.09"/><path class="cls-7" d="M214.37,146.31c0,8.35-5.65,15.13-12.61,15.13s-12.61-6.78-12.61-15.13,5.65-15.13,12.61-15.13S214.37,138,214.37,146.31Z"/><path class="cls-7" d="M221.1,171l-11-4.81s-3.92,2.8-8,2.8-8-2.8-8-2.8l-11,4.81a7.65,7.65,0,0,0-5,7.19v16h48v-16A7.65,7.65,0,0,0,221.1,171Z"/><line class="cls-7" x1="194.12" y1="166.18" x2="199.43" y2="194.18"/><line class="cls-7" x1="210.1" y1="166.18" x2="204.79" y2="194.18"/><polygon class="cls-8" points="199.09 194.18 200.63 171.76 202.97 171.76 205.26 194.18 199.09 194.18"/><path class="cls-8" d="M204.26,168.75a14,14,0,0,1-4.88-.15l1.25,3.17H203Z"/><path class="cls-7" d="M194.12,166.18a17.93,17.93,0,0,0-6.16,7.74"/><path class="cls-7" d="M210.12,166.18s3.16,2.82,5.78,9.8"/><path class="cls-7" d="M183.64,189.35a4.63,4.63,0,0,1-1.42-4.09l1.45-8.84c.23-1.44,2.15-2.5,4.29-2.5h0c2.15,0,4.07,1.06,4.3,2.5l1.45,8.84a4.62,4.62,0,0,1-1.31,4"/><circle class="cls-8" cx="183.64" cy="189.35" r="1.17"/><circle class="cls-8" cx="192.3" cy="189.35" r="1.17"/><path class="cls-8" d="M220.09,178.68a3.64,3.64,0,1,1-3.64-3.64A3.64,3.64,0,0,1,220.09,178.68Z"/><path class="cls-5" d="M218.21,178.68a1.77,1.77,0,1,1-1.76-1.76A1.76,1.76,0,0,1,218.21,178.68Z"/><path class="cls-8" d="M189.26,144.42c17.73,3.28,16.87-11.88,16.84-12.3a10.68,10.68,0,0,0-4.34-.94C195.33,131.18,190,137,189.26,144.42Z"/><path class="cls-8" d="M203.17,131.28l-.34,2.38,2.62,3.41c-.07.23,1.25,6,8.72,6.63C213.22,137.13,208.75,132,203.17,131.28Z"/><path class="cls-7" d="M189.15,149.26h0a2.23,2.23,0,0,1-2.23-2.23v-.62a2.23,2.23,0,0,1,2.23-2.24h0"/><path class="cls-7" d="M214.37,149.26h0a2.23,2.23,0,0,0,2.24-2.23v-.62a2.24,2.24,0,0,0-2.24-2.24h0"/><line class="cls-7" x1="195.77" y1="159.63" x2="194.12" y2="166.18"/><line class="cls-7" x1="208.5" y1="159.63" x2="210.15" y2="166.18"/><polyline class="cls-13" points="169.83 180.45 151.13 180.45 151.13 219.98"/><polyline class="cls-13" points="224.17 161.44 259.5 161.44 259.5 189.35"/><path class="cls-7" d="M388.74,347.3c0-11.34,9.58-20.53,21.39-20.53s21.38,9.19,21.38,20.53-9.58,20.52-21.38,20.52S388.74,358.63,388.74,347.3Z"/><path class="cls-11" d="M405.48,335.83a13.23,13.23,0,0,1,4.65-.84,12.31,12.31,0,1,1,0,24.61,13.07,13.07,0,0,1-8.27-2.9"/><path class="cls-11" d="M401.57,338.13c.32-.27.64-.52,1-.76"/><path class="cls-11" d="M397.31,347.3a11.93,11.93,0,0,1,3-7.88"/><path class="cls-11" d="M398.05,351.43a11.34,11.34,0,0,1-.4-1.29"/><path class="cls-11" d="M399.63,354.36c-.21-.29-.42-.6-.6-.91"/><path class="cls-11" d="M400.34,347.3a9.79,9.79,0,1,1,9.78,9.39A9.6,9.6,0,0,1,400.34,347.3Z"/><path class="cls-11" d="M405.8,347.3a4.33,4.33,0,1,1,4.32,4.14A4.24,4.24,0,0,1,405.8,347.3Z"/><path d="M408.92,339.86a1.21,1.21,0,1,1,1.2,1.15A1.18,1.18,0,0,1,408.92,339.86Z"/><path d="M404,342.89a1.21,1.21,0,0,1,1.71-1.7,1.17,1.17,0,0,1,0,1.66A1.18,1.18,0,0,1,404,342.89Z"/><path d="M402.69,348.5a1.21,1.21,0,1,1,1.15-1.2A1.18,1.18,0,0,1,402.69,348.5Z"/><path d="M405.72,353.41a1.18,1.18,0,0,1-1.67,0,1.15,1.15,0,1,1,1.63-1.63A1.18,1.18,0,0,1,405.72,353.41Z"/><path d="M411.33,354.74a1.21,1.21,0,1,1-1.21-1.16A1.18,1.18,0,0,1,411.33,354.74Z"/><path d="M416.24,351.71a1.17,1.17,0,0,1,0,1.66,1.15,1.15,0,1,1,0-1.66Z"/><path d="M417.56,346.09a1.21,1.21,0,1,1-1.15,1.21A1.19,1.19,0,0,1,417.56,346.09Z"/><path d="M414.53,341.19a1.21,1.21,0,1,1,0,1.66A1.17,1.17,0,0,1,414.53,341.19Z"/><line class="cls-7" x1="341.38" y1="354.48" x2="341.38" y2="349.94"/><line class="cls-7" x1="344.9" y1="354.48" x2="344.9" y2="349.94"/><line class="cls-7" x1="348.42" y1="354.48" x2="348.42" y2="349.94"/><line class="cls-7" x1="330.82" y1="354.48" x2="330.82" y2="349.94"/><line class="cls-7" x1="334.34" y1="353.94" x2="334.34" y2="346.31"/><line class="cls-7" x1="337.86" y1="354.48" x2="337.86" y2="349.94"/><line class="cls-7" x1="320.27" y1="354.48" x2="320.27" y2="349.94"/><line class="cls-7" x1="323.78" y1="354.48" x2="323.78" y2="349.94"/><line class="cls-7" x1="327.3" y1="354.48" x2="327.3" y2="349.94"/><line class="cls-7" x1="309.71" y1="354.48" x2="309.71" y2="349.94"/><line class="cls-7" x1="313.23" y1="354.48" x2="313.23" y2="349.94"/><line class="cls-7" x1="316.75" y1="354.48" x2="316.75" y2="346.31"/><line class="cls-7" x1="299.15" y1="354.48" x2="299.15" y2="346.31"/><line class="cls-7" x1="302.67" y1="354.48" x2="302.67" y2="349.94"/><line class="cls-7" x1="306.19" y1="354.48" x2="306.19" y2="349.94"/><path class="cls-7" d="M281.12,346.31c0,4.42,4,8.17,9.08,8.17h58.57c4.55,0,8-2.14,9.09-5.45H371.6a2.72,2.72,0,0,0,0-5.43v0H357.86c-1.13-3.31-4.54-5.45-9.09-5.45H290.2C285.14,338.13,281.12,341.88,281.12,346.31Z"/><path class="cls-7" d="M284.12,346.31c0-2.81,2.79-5.18,6.08-5.18h25.65"/><path class="cls-8" d="M318.85,340.65a.48.48,0,0,1,.49.48.49.49,0,0,1-1,0A.48.48,0,0,1,318.85,340.65Z"/><path class="cls-8" d="M321.85,340.65a.48.48,0,0,1,.49.48.49.49,0,0,1-1,0A.48.48,0,0,1,321.85,340.65Z"/><path class="cls-8" d="M324.85,340.65a.48.48,0,0,1,.49.48.49.49,0,0,1-1,0A.48.48,0,0,1,324.85,340.65Z"/><path class="cls-20" d="M371.39,345a1.34,1.34,0,1,1-1.33,1.34A1.34,1.34,0,0,1,371.39,345Z"/><line class="cls-21" x1="370.96" y1="346.31" x2="293.14" y2="346.31"/><polyline class="cls-11" points="53.6 204.18 64.65 204.18 67.33 195.45 70.83 211.12 74.7 201.12 76.85 206.12 83.5 196.95 89.67 205.78 93.33 200.18 100.83 214.45 110 200.18 112.5 204.18 118.11 204.18"/><line class="cls-13" x1="49.6" y1="204.18" x2="27.83" y2="204.18"/><line class="cls-13" x1="141.87" y1="204.18" x2="120.11" y2="204.18"/><g class="cls-22"><polyline class="cls-5" points="53.6 204.18 64.65 204.18 67.33 195.45 70.83 211.12 74.7 201.12 76.85 206.12 83.5 196.95 89.67 205.78 93.33 200.18 100.83 214.45 108 200.18 110.5 204.18 118.11 204.18"/></g><line class="cls-7" x1="66.85" y1="276.64" x2="33.63" y2="276.64"/><line class="cls-7" x1="64.7" y1="286.41" x2="40.6" y2="286.41"/><line class="cls-7" x1="62.54" y1="296.18" x2="45.93" y2="296.18"/><line class="cls-7" x1="60.39" y1="305.96" x2="50.62" y2="305.96"/><path d="M47.66,306a1,1,0,0,1-1,1h0a1,1,0,0,1-1-1h0a1,1,0,0,1,1-1h0a1,1,0,0,1,1,1Z"/><path d="M43.66,306a1,1,0,0,1-1,1h0a1,1,0,0,1-1-1h0a1,1,0,0,1,1-1h0a1,1,0,0,1,1,1Z"/><path d="M42.91,296.18a1,1,0,0,1-1,1h0a1,1,0,0,1-1-1h0a1,1,0,0,1,1-1h0a1,1,0,0,1,1,1Z"/><path d="M38.91,296.18a1,1,0,0,1-1,1h0a1,1,0,0,1-1-1h0a1,1,0,0,1,1-1h0a1,1,0,0,1,1,1Z"/><path d="M30.08,281.73a1,1,0,0,1-1,1h0a1,1,0,0,1-1-1h0a1,1,0,0,1,1-1h0a1,1,0,0,1,1,1Z"/></g></svg>